<svg width="21" height="15" viewBox="0 0 21 15" fill="none" xmlns="http://www.w3.org/2000/svg">
<path d="M20.5733 2.31158C20.4538 1.86815 20.2202 1.46376 19.8958 1.13866C19.5715 0.813549 19.1676 0.579066 18.7245 0.458544C17.0813 0.00735273 10.5075 7.97088e-06 10.5075 7.97088e-06C10.5075 7.97088e-06 3.93481 -0.00733722 2.29059 0.423918C1.84771 0.549986 1.44468 0.787785 1.12018 1.11449C0.795683 1.44119 0.560618 1.84582 0.437553 2.28954C0.00419886 3.93272 1.53736e-06 7.34079 1.53736e-06 7.34079C1.53736e-06 7.34079 -0.00419558 10.7656 0.42601 12.392C0.667345 13.2913 1.37561 14.0016 2.2759 14.244C3.93586 14.6952 10.4918 14.7026 10.4918 14.7026C10.4918 14.7026 17.0655 14.7099 18.7087 14.2797C19.152 14.1594 19.5563 13.9254 19.8814 13.601C20.2066 13.2766 20.4415 12.8729 20.5628 12.4298C20.9972 10.7877 21.0003 7.38066 21.0003 7.38066C21.0003 7.38066 21.0213 3.95475 20.5733 2.31158ZM8.40476 10.4981L8.41 4.20239L13.8736 7.35548L8.40476 10.4981Z" fill="#F6F8F8"/>
</svg>
